#N canvas 91 189 670 564 10;
#X obj 122 100 playsound~;
#X obj 219 358 output~;
#X obj 119 239 delay4896~;
#X obj 219 199 phaser4896~;
#X obj 119 159 chorus4896~;
#X obj 219 280 flanger4896~;
#X obj 429 178 snapshot~;
#X obj 491 150 metro 10;
#X floatatom 490 214 5 0 0 0 - - -;
#X obj 429 119 osc~ 0.1;
#X obj 429 213 * 2000;
#X obj 429 150 +~ 2;
#X obj 491 119 loadbang;
#X obj 220 119 ringmod4896~;
#X connect 6 0 8 0;
#X connect 6 0 10 0;
#X connect 7 0 6 0;
#X connect 9 0 11 0;
#X connect 11 0 6 0;
#X connect 12 0 7 0;
