#N canvas 572 140 700 588 10;
#X obj 109 189 hsl 70 15 1 1000 0 0 empty empty time -2 -8 1 10 -262144
-1 -1 1720 1;
#X obj 109 160 hsl 70 15 0 1 0 0 empty empty echo_volume -2 -8 1 10
-262144 -1 -1 3450 1;
#X obj 110 130 hsl 70 15 0.25 0.75 0 0 empty empty panning -2 -8 1
10 -262144 -1 -1 3450 1;
#X obj 64 337 *~ 0.5;
#X obj 298 338 *~ 0.5;
#X obj 158 299 -;
#X msg 173 272 1;
#X obj 158 321 * -1;
#X obj 173 248 loadbang;
#X obj 64 367 *~;
#X obj 298 375 *~;
#X obj 133 -15 inlet~;
#X obj 64 431 outlet~;
#X obj 298 441 outlet~;
#X msg 117 69 0.5;
#X obj 117 33 loadbang;
#X msg 164 69 250;
#X obj -51 212 delwrite~ \$0-delayL 1000;
#X obj 361 212 delwrite~ \$0-delayR 1000;
#X obj 297 308 vd~ \$0-delayL;
#X obj 64 309 vd~ \$0-delayR;
#X text 105 100 delay;
#X connect 0 0 19 0;
#X connect 0 0 20 0;
#X connect 1 0 9 1;
#X connect 1 0 10 1;
#X connect 2 0 4 1;
#X connect 2 0 5 0;
#X connect 2 0 4 0;
#X connect 3 0 9 0;
#X connect 3 0 17 0;
#X connect 4 0 10 0;
#X connect 4 0 18 0;
#X connect 5 0 7 0;
#X connect 6 0 5 1;
#X connect 7 0 3 1;
#X connect 8 0 6 0;
#X connect 9 0 12 0;
#X connect 10 0 13 0;
#X connect 11 0 13 0;
#X connect 11 0 12 0;
#X connect 11 0 17 0;
#X connect 11 0 18 0;
#X connect 14 0 2 0;
#X connect 14 0 1 0;
#X connect 15 0 14 0;
#X connect 15 0 16 0;
#X connect 16 0 0 0;
#X connect 19 0 4 0;
#X connect 20 0 3 0;
#X coords 0 -1 1 1 90 110 2 100 100;
