#N canvas 804 206 472 515 10;
#X obj 99 216 osc~;
#X obj 218 217 osc~;
#X obj 156 118 vsl 12 35 0 5000 0 0 empty empty left -1 -9 1 10 -262144
-1 -1 400 1;
#X obj 182 118 vsl 12 35 0 5000 0 0 empty empty right -5 -9 1 10 -262144
-1 -1 300 1;
#X obj 274 262 samphold~;
#X obj 60 50 inlet~;
#X obj 267 118 vsl 12 35 0 10000 0 0 empty empty samp_rate -15 -9 1
10 -262144 -1 -1 300 1;
#X obj 157 159 tgl 10 0 empty empty empty 17 7 0 10 -262144 -1 -1 0
1;
#X obj 183 159 tgl 10 0 empty empty empty 17 7 0 10 -262144 -1 -1 0
1;
#X obj 268 159 tgl 10 0 empty empty empty 17 7 0 10 -262144 -1 -1 1
1;
#X text 100 141 ring mod;
#X obj 86 412 outlet~;
#X obj 203 414 outlet~;
#X obj 84 262 *~;
#X obj 84 298 *~ 0;
#X obj 203 263 *~;
#X obj 60 79 s~ \$0-in;
#X obj 34 216 r~ \$0-in;
#X obj 154 217 r~ \$0-in;
#X obj 203 298 *~ 0;
#X text 101 154 on/off;
#X obj 119 50 inlet;
#X obj 184 50 inlet;
#X obj 255 50 inlet;
#X obj 119 79 s \$0-left;
#X obj 184 79 s \$0-right;
#X obj 255 79 s \$0-rate;
#X obj 343 218 r \$0-rate;
#X obj 218 173 r \$0-right;
#X obj 99 173 r \$0-left;
#X text 210 142 sample;
#X text 210 153 and hold;
#X obj 206 101 cnv 1 1 68 empty empty empty 20 12 0 14 -228856 -66577
0;
#X obj 274 218 r~ \$0-in;
#X obj 274 298 *~ 0;
#X obj 343 241 phasor~ 5000;
#X obj 43 100 loadbang;
#X msg 43 126 1;
#X connect 0 0 13 1;
#X connect 1 0 15 1;
#X connect 2 0 0 0;
#X connect 3 0 1 0;
#X connect 4 0 34 0;
#X connect 5 0 16 0;
#X connect 6 0 35 0;
#X connect 7 0 14 1;
#X connect 8 0 19 1;
#X connect 9 0 34 1;
#X connect 13 0 14 0;
#X connect 14 0 11 0;
#X connect 15 0 19 0;
#X connect 17 0 13 0;
#X connect 18 0 15 0;
#X connect 19 0 12 0;
#X connect 21 0 24 0;
#X connect 22 0 25 0;
#X connect 23 0 26 0;
#X connect 27 0 35 0;
#X connect 28 0 1 0;
#X connect 29 0 0 0;
#X connect 33 0 4 0;
#X connect 34 0 12 0;
#X connect 34 0 11 0;
#X connect 35 0 4 1;
#X connect 36 0 37 0;
#X connect 37 0 7 0;
#X connect 37 0 8 0;
#X coords 0 -1 1 1 200 70 2 100 100;
